<svg xmlns="http://www.w3.org/2000/svg" width="75" height="20" viewBox="0 0 75 20" fill="none">
  <path d="M7.86592 11.1771L7.79569 15.1101H8.40436C9.27835 13.2529 10.0821 11.2708 10.8156 9.16381C11.5492 7.04125 11.9159 5.42592 11.9159 4.31782C11.9159 3.88082 11.8301 3.45943 11.6584 3.05365C12.8445 2.24208 13.937 1.8363 14.9359 1.8363C16.4966 1.8363 17.2769 2.7181 17.2769 4.48169C17.2769 5.35569 17.035 6.46379 16.5512 7.80599C16.083 9.13259 15.3807 10.8025 14.4443 12.8159C13.5078 14.8136 13.0084 15.8904 12.946 16.0465L13.2737 17.3341C12.5558 17.9116 11.635 18.4032 10.5113 18.809C9.3876 19.1991 8.14684 19.3942 6.78904 19.3942C5.43123 19.3942 4.42458 19.1757 3.76909 18.7387C3.11359 18.3017 2.78585 17.5682 2.78585 16.5381L2.80926 12.2306C2.80926 8.65658 2.37226 6.13604 1.49827 4.66898C1.09249 3.99788 0.593065 3.45943 0 3.05365C1.06127 2.24208 2.27862 1.8363 3.65203 1.8363C4.90059 1.8363 5.82921 2.32792 6.43788 3.31116C7.04655 4.2788 7.44453 5.44153 7.63181 6.79934C7.78788 8.0323 7.86592 9.49155 7.86592 11.1771Z" fill="#0B0A0A"/>
  <path d="M21.3161 19.3942C20.3485 19.3942 19.6462 19.1523 19.2092 18.6685C18.7722 18.1847 18.5537 17.4511 18.5537 16.4679C18.5537 15.4691 19.0531 12.8081 20.052 8.4849L18.741 6.51841C20.6919 5.34788 22.2292 4.76262 23.3529 4.76262C23.9927 4.76262 24.4453 4.90308 24.7107 5.18401C24.976 5.44933 25.1086 5.88633 25.1086 6.495C25.1086 6.72911 24.8199 8.10253 24.2425 10.6153C23.665 13.128 23.3763 14.9228 23.3763 15.9997C23.3763 17.0766 23.6182 17.8257 24.102 18.2471C23.228 19.0119 22.2994 19.3942 21.3161 19.3942Z" fill="#0B0A0A"/>
  <path d="M31.2585 18.2237C30.4001 18.8948 29.5807 19.2303 28.8004 19.2303C28.02 19.2303 27.4347 19.0118 27.0446 18.5749C26.6544 18.1379 26.4593 17.5916 26.4593 16.9361C26.4593 16.265 26.7012 15.6485 27.185 15.0867C27.6689 14.5248 28.3556 14.1893 29.2452 14.08L33.0845 10.0066C31.1492 9.94416 29.8148 9.65543 29.0813 9.1404C28.3478 8.62536 27.981 7.83721 27.981 6.77593C27.981 6.35454 28.0668 5.64442 28.2385 4.64557C29.2842 5.08256 30.4937 5.48054 31.8671 5.83951C33.2405 6.18286 34.3174 6.37015 35.0978 6.40136C35.3475 5.91754 35.7143 5.52736 36.1981 5.23083C36.6975 4.91869 37.2828 4.76262 37.9538 4.76262C38.6406 4.76262 39.1946 4.96551 39.616 5.37129C40.0374 5.77708 40.2481 6.30772 40.2481 6.96321C40.2481 8.10253 39.6784 8.9219 38.5391 9.42132L33.6931 14.9696C34.7076 15.2818 35.5114 15.4456 36.1044 15.4612L39.2882 14.2205C39.616 15.0633 39.7799 15.867 39.7799 16.6318C39.7799 17.3809 39.4209 18.0286 38.703 18.5749C37.9851 19.1211 37.1189 19.3942 36.1044 19.3942C35.09 19.3942 34.0209 19.1991 32.8972 18.809C32.507 18.6841 31.9608 18.489 31.2585 18.2237Z" fill="#0B0A0A"/>
  <path d="M54.927 4.76262C56.8154 4.76262 57.7597 5.70685 57.7597 7.5953C57.7597 8.40686 57.5256 9.78028 57.0573 11.7156C56.6047 13.6508 56.3784 15.1101 56.3784 16.0933C56.3784 17.0766 56.5423 17.7945 56.8701 18.2471C56.0429 19.0119 55.1689 19.3942 54.2481 19.3942C52.4533 19.3942 51.5559 18.4266 51.5559 16.4913C51.5559 15.7734 51.79 14.556 52.2582 12.8393C52.7264 11.1225 52.9605 10.0066 52.9605 9.49155C52.9605 8.78924 52.6952 8.43808 52.1646 8.43808C51.7276 8.43808 51.2281 8.63317 50.6663 9.02334C50.1044 9.39791 49.5582 9.91294 49.0276 10.5684C48.5125 11.2083 48.0755 12.0277 47.7166 13.0265C47.3576 14.0098 47.1781 15.0164 47.1781 16.0465C47.1781 17.061 47.342 17.7945 47.6697 18.2471C46.8426 19.0119 45.9686 19.3942 45.0478 19.3942C43.253 19.3942 42.3556 18.4266 42.3556 16.4913C42.3556 15.3364 42.6677 12.9953 43.292 9.46814C43.8226 6.36234 44.127 4.62216 44.205 4.24759L42.894 2.37474C44.8449 1.23543 46.3822 0.665771 47.5059 0.665771C48.1458 0.665771 48.5984 0.798432 48.8637 1.06375C49.129 1.31346 49.2617 1.73485 49.2617 2.32792C49.2617 3.45163 49.1524 4.67678 48.9339 6.00338C48.7154 7.32998 48.5125 8.30542 48.3252 8.9297L48.5593 9.04675C50.2293 6.19066 52.3518 4.76262 54.927 4.76262Z" fill="#0B0A0A"/>
  <path d="M68.8196 15.9295L68.5855 15.8124C68.1641 16.9361 67.5555 17.8179 66.7595 18.4578C65.9792 19.0821 65.1052 19.3942 64.1376 19.3942C62.811 19.3942 61.7497 18.8948 60.9537 17.8959C60.1578 16.8971 59.7598 15.5627 59.7598 13.8927C59.7598 11.302 60.626 9.13259 62.3584 7.3846C64.1063 5.63661 66.2757 4.76262 68.8665 4.76262C69.5376 4.76262 70.154 4.82505 70.7159 4.94991C70.8095 5.3869 70.8642 5.76927 70.8798 6.09702C71.6601 5.5976 72.4639 5.34788 73.291 5.34788C74.4304 5.34788 75 5.96436 75 7.19732C75 7.63432 74.7503 8.95311 74.2509 11.1537C73.7671 13.3543 73.5251 14.9852 73.5251 16.0465C73.5251 17.1078 73.7671 17.8413 74.2509 18.2471C73.3769 19.0119 72.4639 19.3942 71.5118 19.3942C70.5754 19.3942 69.8887 19.1133 69.4517 18.5514C69.0303 17.9896 68.8196 17.1156 68.8196 15.9295ZM64.161 12.7456C64.161 13.5104 64.317 14.1034 64.6292 14.5248C64.9569 14.9306 65.4173 15.1335 66.0104 15.1335C66.6034 15.1335 67.1887 14.915 67.7662 14.478C68.3436 14.041 68.8274 13.4401 69.2176 12.6754C69.3581 11.0991 69.6624 9.23404 70.1306 7.08027C68.5543 7.08027 67.1653 7.64992 65.9636 8.78924C64.7618 9.92855 64.161 11.2473 64.161 12.7456Z" fill="#0B0A0A"/>
</svg>